# xmcd CD database file
#
# Track frame offsets:
#	150
#	19208
#	41208
#	63238
#	93983
#	126810
#	167018
#	195148
#	218779
#	240006
#	268136
#	297754
#
# Disc length: 4368 seconds
#
# Revision: 1
# Processed by: cddbd v1.4PL0 Copyright (c) Steve Scherf et al.
# Submitted via: CDex 1.50beta9
#
DISCID=9f110e0c
DTITLE=história da biblia - história da biblia
DYEAR=2003
DGENRE=religiosa
TTITLE0=a criação
TTITLE1=o jardim do édem
TTITLE2=noé e o dilúvio
TTITLE3=a história de abraão
TTITLE4=esaú e jacó
TTITLE5=josé no egito
TTITLE6=a vida de moisés
TTITLE7=as pragas do egito
TTITLE8=os 10 mandamentos
TTITLE9=as muralhas de jericó
TTITLE10=sanção e dalila
TTITLE11=o rei david
EXTD=YEAR: 2003
EXTT0=
EXTT1=
EXTT2=
EXTT3=
EXTT4=
EXTT5=
EXTT6=
EXTT7=
EXTT8=
EXTT9=
EXTT10=
EXTT11=
PLAYORDER=
